<?xml version="1.0" encoding="utf-8" standalone="no"?>
<!DOCTYPE svg PUBLIC "-//W3C//DTD SVG 1.1//EN"
  "http://www.w3.org/Graphics/SVG/1.1/DTD/svg11.dtd">
<svg xmlns:xlink="http://www.w3.org/1999/xlink" width="460.8pt" height="345.6pt" viewBox="0 0 460.8 345.6" xmlns="http://www.w3.org/2000/svg" version="1.1">
 <metadata>
  <rdf:RDF xmlns:dc="http://purl.org/dc/elements/1.1/" xmlns:cc="http://creativecommons.org/ns#" xmlns:rdf="http://www.w3.org/1999/02/22-rdf-syntax-ns#">
   <cc:Work>
    <dc:type rdf:resource="http://purl.org/dc/dcmitype/StillImage"/>
    <dc:date>2024-12-12T19:51:10.539216</dc:date>
    <dc:format>image/svg+xml</dc:format>
    <dc:creator>
     <cc:Agent>
      <dc:title>Matplotlib v3.9.3, https://matplotlib.org/</dc:title>
     </cc:Agent>
    </dc:creator>
   </cc:Work>
  </rdf:RDF>
 </metadata>
 <defs>
  <style type="text/css">*{stroke-linejoin: round; stroke-linecap: butt}</style>
 </defs>
 <g id="figure_1">
  <g id="patch_1">
   <path d="M 0 345.6 
L 460.8 345.6 
L 460.8 0 
L 0 0 
z
" style="fill: #ffffff"/>
  </g>
  <g id="axes_1">
   <g id="patch_2">
    <path d="M 57.6 307.584 
L 414.72 307.584 
L 414.72 41.472 
L 57.6 41.472 
z
" style="fill: #ffffff"/>
   </g>
   <g id="matplotlib.axis_1">
    <g id="xtick_1">
     <g id="line2d_1">
      <path d="M 57.6 307.584 
L 57.6 41.472 
" clip-path="url(#pb265440d0b)" style="fill: none; stroke: #b0b0b0; stroke-width: 0.8; stroke-linecap: square"/>
     </g>
     <g id="line2d_2">
      <defs>
       <path id="md557f4ca64" d="M 0 0 
L 0 3.5 
" style="stroke: #000000; stroke-width: 0.8"/>
      </defs>
      <g>
       <use xlink:href="#md557f4ca64" x="57.6" y="307.584" style="stroke: #000000; stroke-width: 0.8"/>
      </g>
     </g>
     <g id="text_1">
      <!-- −10.0 -->
      <g transform="translate(42.277344 322.182437) scale(0.1 -0.1)">
       <defs>
        <path id="DejaVuSans-2212" d="M 678 2272 
L 4684 2272 
L 4684 1741 
L 678 1741 
L 678 2272 
z
" transform="scale(0.015625)"/>
        <path id="DejaVuSans-31" d="M 794 531 
L 1825 531 
L 1825 4091 
L 703 3866 
L 703 4441 
L 1819 4666 
L 2450 4666 
L 2450 531 
L 3481 531 
L 3481 0 
L 794 0 
L 794 531 
z
" transform="scale(0.015625)"/>
        <path id="DejaVuSans-30" d="M 2034 4250 
Q 1547 4250 1301 3770 
Q 1056 3291 1056 2328 
Q 1056 1369 1301 889 
Q 1547 409 2034 409 
Q 2525 409 2770 889 
Q 3016 1369 3016 2328 
Q 3016 3291 2770 3770 
Q 2525 4250 2034 4250 
z
M 2034 4750 
Q 2819 4750 3233 4129 
Q 3647 3509 3647 2328 
Q 3647 1150 3233 529 
Q 2819 -91 2034 -91 
Q 1250 -91 836 529 
Q 422 1150 422 2328 
Q 422 3509 836 4129 
Q 1250 4750 2034 4750 
z
" transform="scale(0.015625)"/>
        <path id="DejaVuSans-2e" d="M 684 794 
L 1344 794 
L 1344 0 
L 684 0 
L 684 794 
z
" transform="scale(0.015625)"/>
       </defs>
       <use xlink:href="#DejaVuSans-2212"/>
       <use xlink:href="#DejaVuSans-31" x="83.789062"/>
       <use xlink:href="#DejaVuSans-30" x="147.412109"/>
       <use xlink:href="#DejaVuSans-2e" x="211.035156"/>
       <use xlink:href="#DejaVuSans-30" x="242.822266"/>
      </g>
     </g>
    </g>
    <g id="xtick_2">
     <g id="line2d_3">
      <path d="M 102.24 307.584 
L 102.24 41.472 
" clip-path="url(#pb265440d0b)" style="fill: none; stroke: #b0b0b0; stroke-width: 0.8; stroke-linecap: square"/>
     </g>
     <g id="line2d_4">
      <g>
       <use xlink:href="#md557f4ca64" x="102.24" y="307.584" style="stroke: #000000; stroke-width: 0.8"/>
      </g>
     </g>
     <g id="text_2">
      <!-- −7.5 -->
      <g transform="translate(90.098594 322.182437) scale(0.1 -0.1)">
       <defs>
        <path id="DejaVuSans-37" d="M 525 4666 
L 3525 4666 
L 3525 4397 
L 1831 0 
L 1172 0 
L 2766 4134 
L 525 4134 
L 525 4666 
z
" transform="scale(0.015625)"/>
        <path id="DejaVuSans-35" d="M 691 4666 
L 3169 4666 
L 3169 4134 
L 1269 4134 
L 1269 2991 
Q 1406 3038 1543 3061 
Q 1681 3084 1819 3084 
Q 2600 3084 3056 2656 
Q 3513 2228 3513 1497 
Q 3513 744 3044 326 
Q 2575 -91 1722 -91 
Q 1428 -91 1123 -41 
Q 819 9 494 109 
L 494 744 
Q 775 591 1075 516 
Q 1375 441 1709 441 
Q 2250 441 2565 725 
Q 2881 1009 2881 1497 
Q 2881 1984 2565 2268 
Q 2250 2553 1709 2553 
Q 1456 2553 1204 2497 
Q 953 2441 691 2322 
L 691 4666 
z
" transform="scale(0.015625)"/>
       </defs>
       <use xlink:href="#DejaVuSans-2212"/>
       <use xlink:href="#DejaVuSans-37" x="83.789062"/>
       <use xlink:href="#DejaVuSans-2e" x="147.412109"/>
       <use xlink:href="#DejaVuSans-35" x="179.199219"/>
      </g>
     </g>
    </g>
    <g id="xtick_3">
     <g id="line2d_5">
      <path d="M 146.88 307.584 
L 146.88 41.472 
" clip-path="url(#pb265440d0b)" style="fill: none; stroke: #b0b0b0; stroke-width: 0.8; stroke-linecap: square"/>
     </g>
     <g id="line2d_6">
      <g>
       <use xlink:href="#md557f4ca64" x="146.88" y="307.584" style="stroke: #000000; stroke-width: 0.8"/>
      </g>
     </g>
     <g id="text_3">
      <!-- −5.0 -->
      <g transform="translate(134.738594 322.182437) scale(0.1 -0.1)">
       <use xlink:href="#DejaVuSans-2212"/>
       <use xlink:href="#DejaVuSans-35" x="83.789062"/>
       <use xlink:href="#DejaVuSans-2e" x="147.412109"/>
       <use xlink:href="#DejaVuSans-30" x="179.199219"/>
      </g>
     </g>
    </g>
    <g id="xtick_4">
     <g id="line2d_7">
      <path d="M 191.52 307.584 
L 191.52 41.472 
" clip-path="url(#pb265440d0b)" style="fill: none; stroke: #b0b0b0; stroke-width: 0.8; stroke-linecap: square"/>
     </g>
     <g id="line2d_8">
      <g>
       <use xlink:href="#md557f4ca64" x="191.52" y="307.584" style="stroke: #000000; stroke-width: 0.8"/>
      </g>
     </g>
     <g id="text_4">
      <!-- −2.5 -->
      <g transform="translate(179.378594 322.182437) scale(0.1 -0.1)">
       <defs>
        <path id="DejaVuSans-32" d="M 1228 531 
L 3431 531 
L 3431 0 
L 469 0 
L 469 531 
Q 828 903 1448 1529 
Q 2069 2156 2228 2338 
Q 2531 2678 2651 2914 
Q 2772 3150 2772 3378 
Q 2772 3750 2511 3984 
Q 2250 4219 1831 4219 
Q 1534 4219 1204 4116 
Q 875 4013 500 3803 
L 500 4441 
Q 881 4594 1212 4672 
Q 1544 4750 1819 4750 
Q 2544 4750 2975 4387 
Q 3406 4025 3406 3419 
Q 3406 3131 3298 2873 
Q 3191 2616 2906 2266 
Q 2828 2175 2409 1742 
Q 1991 1309 1228 531 
z
" transform="scale(0.015625)"/>
       </defs>
       <use xlink:href="#DejaVuSans-2212"/>
       <use xlink:href="#DejaVuSans-32" x="83.789062"/>
       <use xlink:href="#DejaVuSans-2e" x="147.412109"/>
       <use xlink:href="#DejaVuSans-35" x="179.199219"/>
      </g>
     </g>
    </g>
    <g id="xtick_5">
     <g id="line2d_9">
      <path d="M 236.16 307.584 
L 236.16 41.472 
" clip-path="url(#pb265440d0b)" style="fill: none; stroke: #b0b0b0; stroke-width: 0.8; stroke-linecap: square"/>
     </g>
     <g id="line2d_10">
      <g>
       <use xlink:href="#md557f4ca64" x="236.16" y="307.584" style="stroke: #000000; stroke-width: 0.8"/>
      </g>
     </g>
     <g id="text_5">
      <!-- 0.0 -->
      <g transform="translate(228.208438 322.182437) scale(0.1 -0.1)">
       <use xlink:href="#DejaVuSans-30"/>
       <use xlink:href="#DejaVuSans-2e" x="63.623047"/>
       <use xlink:href="#DejaVuSans-30" x="95.410156"/>
      </g>
     </g>
    </g>
    <g id="xtick_6">
     <g id="line2d_11">
      <path d="M 280.8 307.584 
L 280.8 41.472 
" clip-path="url(#pb265440d0b)" style="fill: none; stroke: #b0b0b0; stroke-width: 0.8; stroke-linecap: square"/>
     </g>
     <g id="line2d_12">
      <g>
       <use xlink:href="#md557f4ca64" x="280.8" y="307.584" style="stroke: #000000; stroke-width: 0.8"/>
      </g>
     </g>
     <g id="text_6">
      <!-- 2.5 -->
      <g transform="translate(272.848437 322.182437) scale(0.1 -0.1)">
       <use xlink:href="#DejaVuSans-32"/>
       <use xlink:href="#DejaVuSans-2e" x="63.623047"/>
       <use xlink:href="#DejaVuSans-35" x="95.410156"/>
      </g>
     </g>
    </g>
    <g id="xtick_7">
     <g id="line2d_13">
      <path d="M 325.44 307.584 
L 325.44 41.472 
" clip-path="url(#pb265440d0b)" style="fill: none; stroke: #b0b0b0; stroke-width: 0.8; stroke-linecap: square"/>
     </g>
     <g id="line2d_14">
      <g>
       <use xlink:href="#md557f4ca64" x="325.44" y="307.584" style="stroke: #000000; stroke-width: 0.8"/>
      </g>
     </g>
     <g id="text_7">
      <!-- 5.0 -->
      <g transform="translate(317.488437 322.182437) scale(0.1 -0.1)">
       <use xlink:href="#DejaVuSans-35"/>
       <use xlink:href="#DejaVuSans-2e" x="63.623047"/>
       <use xlink:href="#DejaVuSans-30" x="95.410156"/>
      </g>
     </g>
    </g>
    <g id="xtick_8">
     <g id="line2d_15">
      <path d="M 370.08 307.584 
L 370.08 41.472 
" clip-path="url(#pb265440d0b)" style="fill: none; stroke: #b0b0b0; stroke-width: 0.8; stroke-linecap: square"/>
     </g>
     <g id="line2d_16">
      <g>
       <use xlink:href="#md557f4ca64" x="370.08" y="307.584" style="stroke: #000000; stroke-width: 0.8"/>
      </g>
     </g>
     <g id="text_8">
      <!-- 7.5 -->
      <g transform="translate(362.128438 322.182437) scale(0.1 -0.1)">
       <use xlink:href="#DejaVuSans-37"/>
       <use xlink:href="#DejaVuSans-2e" x="63.623047"/>
       <use xlink:href="#DejaVuSans-35" x="95.410156"/>
      </g>
     </g>
    </g>
    <g id="xtick_9">
     <g id="line2d_17">
      <path d="M 414.72 307.584 
L 414.72 41.472 
" clip-path="url(#pb265440d0b)" style="fill: none; stroke: #b0b0b0; stroke-width: 0.8; stroke-linecap: square"/>
     </g>
     <g id="line2d_18">
      <g>
       <use xlink:href="#md557f4ca64" x="414.72" y="307.584" style="stroke: #000000; stroke-width: 0.8"/>
      </g>
     </g>
     <g id="text_9">
      <!-- 10.0 -->
      <g transform="translate(403.587188 322.182437) scale(0.1 -0.1)">
       <use xlink:href="#DejaVuSans-31"/>
       <use xlink:href="#DejaVuSans-30" x="63.623047"/>
       <use xlink:href="#DejaVuSans-2e" x="127.246094"/>
       <use xlink:href="#DejaVuSans-30" x="159.033203"/>
      </g>
     </g>
    </g>
    <g id="text_10">
     <!-- x -->
     <g transform="translate(233.200625 335.860562) scale(0.1 -0.1)">
      <defs>
       <path id="DejaVuSans-78" d="M 3513 3500 
L 2247 1797 
L 3578 0 
L 2900 0 
L 1881 1375 
L 863 0 
L 184 0 
L 1544 1831 
L 300 3500 
L 978 3500 
L 1906 2253 
L 2834 3500 
L 3513 3500 
z
" transform="scale(0.015625)"/>
      </defs>
      <use xlink:href="#DejaVuSans-78"/>
     </g>
    </g>
   </g>
   <g id="matplotlib.axis_2">
    <g id="ytick_1">
     <g id="line2d_19">
      <path d="M 57.6 307.584 
L 414.72 307.584 
" clip-path="url(#pb265440d0b)" style="fill: none; stroke: #b0b0b0; stroke-width: 0.8; stroke-linecap: square"/>
     </g>
     <g id="line2d_20">
      <defs>
       <path id="m58180da9f8" d="M 0 0 
L -3.5 0 
" style="stroke: #000000; stroke-width: 0.8"/>
      </defs>
      <g>
       <use xlink:href="#m58180da9f8" x="57.6" y="307.584" style="stroke: #000000; stroke-width: 0.8"/>
      </g>
     </g>
     <g id="text_11">
      <!-- −10.0 -->
      <g transform="translate(19.954687 311.383219) scale(0.1 -0.1)">
       <use xlink:href="#DejaVuSans-2212"/>
       <use xlink:href="#DejaVuSans-31" x="83.789062"/>
       <use xlink:href="#DejaVuSans-30" x="147.412109"/>
       <use xlink:href="#DejaVuSans-2e" x="211.035156"/>
       <use xlink:href="#DejaVuSans-30" x="242.822266"/>
      </g>
     </g>
    </g>
    <g id="ytick_2">
     <g id="line2d_21">
      <path d="M 57.6 274.32 
L 414.72 274.32 
" clip-path="url(#pb265440d0b)" style="fill: none; stroke: #b0b0b0; stroke-width: 0.8; stroke-linecap: square"/>
     </g>
     <g id="line2d_22">
      <g>
       <use xlink:href="#m58180da9f8" x="57.6" y="274.32" style="stroke: #000000; stroke-width: 0.8"/>
      </g>
     </g>
     <g id="text_12">
      <!-- −7.5 -->
      <g transform="translate(26.317187 278.119219) scale(0.1 -0.1)">
       <use xlink:href="#DejaVuSans-2212"/>
       <use xlink:href="#DejaVuSans-37" x="83.789062"/>
       <use xlink:href="#DejaVuSans-2e" x="147.412109"/>
       <use xlink:href="#DejaVuSans-35" x="179.199219"/>
      </g>
     </g>
    </g>
    <g id="ytick_3">
     <g id="line2d_23">
      <path d="M 57.6 241.056 
L 414.72 241.056 
" clip-path="url(#pb265440d0b)" style="fill: none; stroke: #b0b0b0; stroke-width: 0.8; stroke-linecap: square"/>
     </g>
     <g id="line2d_24">
      <g>
       <use xlink:href="#m58180da9f8" x="57.6" y="241.056" style="stroke: #000000; stroke-width: 0.8"/>
      </g>
     </g>
     <g id="text_13">
      <!-- −5.0 -->
      <g transform="translate(26.317187 244.855219) scale(0.1 -0.1)">
       <use xlink:href="#DejaVuSans-2212"/>
       <use xlink:href="#DejaVuSans-35" x="83.789062"/>
       <use xlink:href="#DejaVuSans-2e" x="147.412109"/>
       <use xlink:href="#DejaVuSans-30" x="179.199219"/>
      </g>
     </g>
    </g>
    <g id="ytick_4">
     <g id="line2d_25">
      <path d="M 57.6 207.792 
L 414.72 207.792 
" clip-path="url(#pb265440d0b)" style="fill: none; stroke: #b0b0b0; stroke-width: 0.8; stroke-linecap: square"/>
     </g>
     <g id="line2d_26">
      <g>
       <use xlink:href="#m58180da9f8" x="57.6" y="207.792" style="stroke: #000000; stroke-width: 0.8"/>
      </g>
     </g>
     <g id="text_14">
      <!-- −2.5 -->
      <g transform="translate(26.317187 211.591219) scale(0.1 -0.1)">
       <use xlink:href="#DejaVuSans-2212"/>
       <use xlink:href="#DejaVuSans-32" x="83.789062"/>
       <use xlink:href="#DejaVuSans-2e" x="147.412109"/>
       <use xlink:href="#DejaVuSans-35" x="179.199219"/>
      </g>
     </g>
    </g>
    <g id="ytick_5">
     <g id="line2d_27">
      <path d="M 57.6 174.528 
L 414.72 174.528 
" clip-path="url(#pb265440d0b)" style="fill: none; stroke: #b0b0b0; stroke-width: 0.8; stroke-linecap: square"/>
     </g>
     <g id="line2d_28">
      <g>
       <use xlink:href="#m58180da9f8" x="57.6" y="174.528" style="stroke: #000000; stroke-width: 0.8"/>
      </g>
     </g>
     <g id="text_15">
      <!-- 0.0 -->
      <g transform="translate(34.696875 178.327219) scale(0.1 -0.1)">
       <use xlink:href="#DejaVuSans-30"/>
       <use xlink:href="#DejaVuSans-2e" x="63.623047"/>
       <use xlink:href="#DejaVuSans-30" x="95.410156"/>
      </g>
     </g>
    </g>
    <g id="ytick_6">
     <g id="line2d_29">
      <path d="M 57.6 141.264 
L 414.72 141.264 
" clip-path="url(#pb265440d0b)" style="fill: none; stroke: #b0b0b0; stroke-width: 0.8; stroke-linecap: square"/>
     </g>
     <g id="line2d_30">
      <g>
       <use xlink:href="#m58180da9f8" x="57.6" y="141.264" style="stroke: #000000; stroke-width: 0.8"/>
      </g>
     </g>
     <g id="text_16">
      <!-- 2.5 -->
      <g transform="translate(34.696875 145.063219) scale(0.1 -0.1)">
       <use xlink:href="#DejaVuSans-32"/>
       <use xlink:href="#DejaVuSans-2e" x="63.623047"/>
       <use xlink:href="#DejaVuSans-35" x="95.410156"/>
      </g>
     </g>
    </g>
    <g id="ytick_7">
     <g id="line2d_31">
      <path d="M 57.6 108 
L 414.72 108 
" clip-path="url(#pb265440d0b)" style="fill: none; stroke: #b0b0b0; stroke-width: 0.8; stroke-linecap: square"/>
     </g>
     <g id="line2d_32">
      <g>
       <use xlink:href="#m58180da9f8" x="57.6" y="108" style="stroke: #000000; stroke-width: 0.8"/>
      </g>
     </g>
     <g id="text_17">
      <!-- 5.0 -->
      <g transform="translate(34.696875 111.799219) scale(0.1 -0.1)">
       <use xlink:href="#DejaVuSans-35"/>
       <use xlink:href="#DejaVuSans-2e" x="63.623047"/>
       <use xlink:href="#DejaVuSans-30" x="95.410156"/>
      </g>
     </g>
    </g>
    <g id="ytick_8">
     <g id="line2d_33">
      <path d="M 57.6 74.736 
L 414.72 74.736 
" clip-path="url(#pb265440d0b)" style="fill: none; stroke: #b0b0b0; stroke-width: 0.8; stroke-linecap: square"/>
     </g>
     <g id="line2d_34">
      <g>
       <use xlink:href="#m58180da9f8" x="57.6" y="74.736" style="stroke: #000000; stroke-width: 0.8"/>
      </g>
     </g>
     <g id="text_18">
      <!-- 7.5 -->
      <g transform="translate(34.696875 78.535219) scale(0.1 -0.1)">
       <use xlink:href="#DejaVuSans-37"/>
       <use xlink:href="#DejaVuSans-2e" x="63.623047"/>
       <use xlink:href="#DejaVuSans-35" x="95.410156"/>
      </g>
     </g>
    </g>
    <g id="ytick_9">
     <g id="line2d_35">
      <path d="M 57.6 41.472 
L 414.72 41.472 
" clip-path="url(#pb265440d0b)" style="fill: none; stroke: #b0b0b0; stroke-width: 0.8; stroke-linecap: square"/>
     </g>
     <g id="line2d_36">
      <g>
       <use xlink:href="#m58180da9f8" x="57.6" y="41.472" style="stroke: #000000; stroke-width: 0.8"/>
      </g>
     </g>
     <g id="text_19">
      <!-- 10.0 -->
      <g transform="translate(28.334375 45.271219) scale(0.1 -0.1)">
       <use xlink:href="#DejaVuSans-31"/>
       <use xlink:href="#DejaVuSans-30" x="63.623047"/>
       <use xlink:href="#DejaVuSans-2e" x="127.246094"/>
       <use xlink:href="#DejaVuSans-30" x="159.033203"/>
      </g>
     </g>
    </g>
    <g id="text_20">
     <!-- f(x) -->
     <g transform="translate(13.875 183.149094) rotate(-90) scale(0.1 -0.1)">
      <defs>
       <path id="DejaVuSans-66" d="M 2375 4863 
L 2375 4384 
L 1825 4384 
Q 1516 4384 1395 4259 
Q 1275 4134 1275 3809 
L 1275 3500 
L 2222 3500 
L 2222 3053 
L 1275 3053 
L 1275 0 
L 697 0 
L 697 3053 
L 147 3053 
L 147 3500 
L 697 3500 
L 697 3744 
Q 697 4328 969 4595 
Q 1241 4863 1831 4863 
L 2375 4863 
z
" transform="scale(0.015625)"/>
       <path id="DejaVuSans-28" d="M 1984 4856 
Q 1566 4138 1362 3434 
Q 1159 2731 1159 2009 
Q 1159 1288 1364 580 
Q 1569 -128 1984 -844 
L 1484 -844 
Q 1016 -109 783 600 
Q 550 1309 550 2009 
Q 550 2706 781 3412 
Q 1013 4119 1484 4856 
L 1984 4856 
z
" transform="scale(0.015625)"/>
       <path id="DejaVuSans-29" d="M 513 4856 
L 1013 4856 
Q 1481 4119 1714 3412 
Q 1947 2706 1947 2009 
Q 1947 1309 1714 600 
Q 1481 -109 1013 -844 
L 513 -844 
Q 928 -128 1133 580 
Q 1338 1288 1338 2009 
Q 1338 2731 1133 3434 
Q 928 4138 513 4856 
z
" transform="scale(0.015625)"/>
      </defs>
      <use xlink:href="#DejaVuSans-66"/>
      <use xlink:href="#DejaVuSans-28" x="35.205078"/>
      <use xlink:href="#DejaVuSans-78" x="74.21875"/>
      <use xlink:href="#DejaVuSans-29" x="133.398438"/>
     </g>
    </g>
   </g>
   <g id="line2d_37">
    <path d="M 56.444853 162.544408 
L 59.124504 162.564418 
L 61.804155 162.585043 
L 64.483805 162.606312 
L 67.163456 162.628256 
L 69.843106 162.650907 
L 72.522757 162.674299 
L 75.202407 162.698471 
L 77.882058 162.723461 
L 80.561708 162.749311 
L 83.241359 162.776068 
L 85.921009 162.803779 
L 88.60066 162.832497 
L 91.280311 162.862276 
L 93.959961 162.893179 
L 96.639612 162.925268 
L 99.319262 162.958614 
L 101.998913 162.993292 
L 104.678563 163.029384 
L 107.358214 163.066977 
L 110.037864 163.106168 
L 112.717515 163.14706 
L 115.397165 163.189767 
L 118.076816 163.234412 
L 120.756467 163.281131 
L 123.436117 163.33007 
L 126.115768 163.381394 
L 128.795418 163.435279 
L 131.475069 163.491922 
L 134.154719 163.551542 
L 136.83437 163.614379 
L 139.51402 163.6807 
L 142.193671 163.750803 
L 144.873321 163.825023 
L 147.552972 163.903731 
L 150.232623 163.987349 
L 152.912273 164.076349 
L 155.591924 164.17127 
L 158.271574 164.272722 
L 160.951225 164.381404 
L 163.630875 164.498116 
L 166.310526 164.623783 
L 168.990176 164.759476 
L 171.669827 164.906446 
L 174.349477 165.06616 
L 177.029128 165.240348 
L 179.708779 165.431074 
L 182.388429 165.640809 
L 185.06808 165.872544 
L 187.74773 166.129933 
L 190.427381 166.417484 
L 193.107031 166.74083 
L 195.786682 167.107098 
L 198.466332 167.525443 
L 201.145983 168.007819 
L 203.825633 168.570149 
L 206.505284 169.234104 
L 209.184935 170.029971 
L 211.864585 171.001397 
L 214.544236 172.213674 
L 217.223886 173.76905 
L 219.903537 175.83719 
L 222.583187 178.721705 
L 225.262838 183.024846 
L 227.942488 190.134412 
L 230.622139 204.124306 
L 233.301789 244.346015 
L 233.521444 346.6 
" clip-path="url(#pb265440d0b)" style="fill: none; stroke: #0000ff; stroke-width: 1.5; stroke-linecap: square"/>
   </g>
   <g id="line2d_38">
    <path d="M 238.848296 -1 
L 239.018211 78.098785 
L 241.697861 118.320494 
L 244.377512 132.310388 
L 247.057162 139.419954 
L 249.736813 143.723095 
L 252.416463 146.60761 
L 255.096114 148.67575 
L 257.775764 150.231126 
L 260.455415 151.443403 
L 263.135065 152.414829 
L 265.814716 153.210696 
L 268.494367 153.874651 
L 271.174017 154.436981 
L 273.853668 154.919357 
L 276.533318 155.337702 
L 279.212969 155.70397 
L 281.892619 156.027316 
L 284.57227 156.314867 
L 287.25192 156.572256 
L 289.931571 156.803991 
L 292.611221 157.013726 
L 295.290872 157.204452 
L 297.970523 157.37864 
L 300.650173 157.538354 
L 303.329824 157.685324 
L 306.009474 157.821017 
L 308.689125 157.946684 
L 311.368775 158.063396 
L 314.048426 158.172078 
L 316.728076 158.27353 
L 319.407727 158.368451 
L 322.087377 158.457451 
L 324.767028 158.541069 
L 327.446679 158.619777 
L 330.126329 158.693997 
L 332.80598 158.7641 
L 335.48563 158.830421 
L 338.165281 158.893258 
L 340.844931 158.952878 
L 343.524582 159.009521 
L 346.204232 159.063406 
L 348.883883 159.11473 
L 351.563533 159.163669 
L 354.243184 159.210388 
L 356.922835 159.255033 
L 359.602485 159.29774 
L 362.282136 159.338632 
L 364.961786 159.377823 
L 367.641437 159.415416 
L 370.321087 159.451508 
L 373.000738 159.486186 
L 375.680388 159.519532 
L 378.360039 159.551621 
L 381.039689 159.582524 
L 383.71934 159.612303 
L 386.398991 159.641021 
L 389.078641 159.668732 
L 391.758292 159.695489 
L 394.437942 159.721339 
L 397.117593 159.746329 
L 399.797243 159.770501 
L 402.476894 159.793893 
L 405.156544 159.816544 
L 407.836195 159.838488 
L 410.515845 159.859757 
L 413.195496 159.880382 
L 415.875147 159.900392 
" clip-path="url(#pb265440d0b)" style="fill: none; stroke: #0000ff; stroke-width: 1.5; stroke-linecap: square"/>
   </g>
   <g id="line2d_39">
    <path d="M 56.444853 163.866415 
L 59.124504 163.906436 
L 61.804155 163.947686 
L 64.483805 163.990225 
L 67.163456 164.034112 
L 69.843106 164.079413 
L 72.522757 164.126199 
L 75.202407 164.174541 
L 77.882058 164.224521 
L 80.561708 164.276223 
L 83.241359 164.329736 
L 85.921009 164.385158 
L 88.60066 164.442593 
L 91.280311 164.502153 
L 93.959961 164.563957 
L 96.639612 164.628136 
L 99.319262 164.694828 
L 101.998913 164.764184 
L 104.678563 164.836367 
L 107.358214 164.911554 
L 110.037864 164.989935 
L 112.717515 165.07172 
L 115.397165 165.157134 
L 118.076816 165.246424 
L 120.756467 165.339861 
L 123.436117 165.437741 
L 126.115768 165.540387 
L 128.795418 165.648157 
L 131.475069 165.761445 
L 134.154719 165.880684 
L 136.83437 166.006357 
L 139.51402 166.139 
L 142.193671 166.279207 
L 144.873321 166.427646 
L 147.552972 166.585063 
L 150.232623 166.752297 
L 152.912273 166.930299 
L 155.591924 167.12014 
L 158.271574 167.323044 
L 160.951225 167.540407 
L 163.630875 167.773831 
L 166.310526 168.025165 
L 168.990176 168.296553 
L 171.669827 168.590493 
L 174.349477 168.909919 
L 177.029128 169.258297 
L 179.708779 169.639748 
L 182.388429 170.059218 
L 185.06808 170.522688 
L 187.74773 171.037465 
L 190.427381 171.612568 
L 193.107031 172.25926 
L 195.786682 172.991796 
L 198.466332 173.828485 
L 201.145983 174.793239 
L 203.825633 175.917897 
L 206.505284 177.245807 
L 209.184935 178.837541 
L 211.864585 180.780394 
L 214.544236 183.204948 
L 217.223886 186.3157 
L 219.903537 190.45198 
L 222.583187 196.221011 
L 225.262838 204.827293 
L 227.942488 219.046424 
L 230.622139 247.026211 
L 233.301789 327.46963 
L 233.322337 346.6 
" clip-path="url(#pb265440d0b)" style="fill: none; stroke: #ff0000; stroke-width: 1.5; stroke-linecap: square"/>
   </g>
   <g id="line2d_40">
    <path d="M 239.152282 -1 
L 241.697861 75.418589 
L 244.377512 103.398376 
L 247.057162 117.617507 
L 249.736813 126.223789 
L 252.416463 131.99282 
L 255.096114 136.1291 
L 257.775764 139.239852 
L 260.455415 141.664406 
L 263.135065 143.607259 
L 265.814716 145.198993 
L 268.494367 146.526903 
L 271.174017 147.651561 
L 273.853668 148.616315 
L 276.533318 149.453004 
L 279.212969 150.18554 
L 281.892619 150.832232 
L 284.57227 151.407335 
L 287.25192 151.922112 
L 289.931571 152.385582 
L 292.611221 152.805052 
L 295.290872 153.186503 
L 297.970523 153.534881 
L 300.650173 153.854307 
L 303.329824 154.148247 
L 306.009474 154.419635 
L 308.689125 154.670969 
L 311.368775 154.904393 
L 314.048426 155.121756 
L 316.728076 155.32466 
L 319.407727 155.514501 
L 322.087377 155.692503 
L 324.767028 155.859737 
L 327.446679 156.017154 
L 330.126329 156.165593 
L 332.80598 156.3058 
L 335.48563 156.438443 
L 338.165281 156.564116 
L 340.844931 156.683355 
L 343.524582 156.796643 
L 346.204232 156.904413 
L 348.883883 157.007059 
L 351.563533 157.104939 
L 354.243184 157.198376 
L 356.922835 157.287666 
L 359.602485 157.37308 
L 362.282136 157.454865 
L 364.961786 157.533246 
L 367.641437 157.608433 
L 370.321087 157.680616 
L 373.000738 157.749972 
L 375.680388 157.816664 
L 378.360039 157.880843 
L 381.039689 157.942647 
L 383.71934 158.002207 
L 386.398991 158.059642 
L 389.078641 158.115064 
L 391.758292 158.168577 
L 394.437942 158.220279 
L 397.117593 158.270259 
L 399.797243 158.318601 
L 402.476894 158.365387 
L 405.156544 158.410688 
L 407.836195 158.454575 
L 410.515845 158.497114 
L 413.195496 158.538364 
L 415.875147 158.578385 
" clip-path="url(#pb265440d0b)" style="fill: none; stroke: #ff0000; stroke-width: 1.5; stroke-linecap: square"/>
   </g>
   <g id="line2d_41">
    <path d="M 56.444853 161.091049 
L 59.124504 161.087043 
L 61.804155 161.08285 
L 64.483805 161.07846 
L 67.163456 161.073859 
L 69.843106 161.069034 
L 72.522757 161.06397 
L 75.202407 161.058651 
L 77.882058 161.053059 
L 80.561708 161.047176 
L 83.241359 161.040981 
L 85.921009 161.034452 
L 88.60066 161.027564 
L 91.280311 161.02029 
L 93.959961 161.012601 
L 96.639612 161.004465 
L 99.319262 160.995846 
L 101.998913 160.986705 
L 104.678563 160.977 
L 107.358214 160.966683 
L 110.037864 160.955702 
L 112.717515 160.943997 
L 115.397165 160.931505 
L 118.076816 160.918153 
L 120.756467 160.90386 
L 123.436117 160.888535 
L 126.115768 160.872077 
L 128.795418 160.854372 
L 131.475069 160.83529 
L 134.154719 160.814684 
L 136.83437 160.792388 
L 139.51402 160.768212 
L 142.193671 160.741939 
L 144.873321 160.713318 
L 147.552972 160.682061 
L 150.232623 160.647834 
L 152.912273 160.61025 
L 155.591924 160.568853 
L 158.271574 160.523111 
L 160.951225 160.472392 
L 163.630875 160.415949 
L 166.310526 160.352886 
L 168.990176 160.282126 
L 171.669827 160.202363 
L 174.349477 160.112004 
L 177.029128 160.009083 
L 179.708779 159.891161 
L 182.388429 159.755173 
L 185.06808 159.597232 
L 187.74773 159.412344 
L 190.427381 159.194014 
L 193.107031 158.933659 
L 195.786682 158.619761 
L 198.466332 158.236563 
L 201.145983 157.762059 
L 203.825633 157.164754 
L 206.505284 156.398311 
L 209.184935 155.392276 
L 211.864585 154.035292 
L 214.544236 152.142906 
L 217.223886 149.391409 
L 219.903537 145.169604 
L 222.583187 138.207602 
L 225.262838 125.497091 
L 227.942488 98.398895 
L 230.622139 22.891659 
L 230.790189 -1 
" clip-path="url(#pb265440d0b)" style="fill: none; stroke: #008000; stroke-width: 1.5; stroke-linecap: square"/>
   </g>
   <g id="line2d_42">
    <path d="M 241.529811 -1 
L 241.697861 22.891659 
L 244.377512 98.398895 
L 247.057162 125.497091 
L 249.736813 138.207602 
L 252.416463 145.169604 
L 255.096114 149.391409 
L 257.775764 152.142906 
L 260.455415 154.035292 
L 263.135065 155.392276 
L 265.814716 156.398311 
L 268.494367 157.164754 
L 271.174017 157.762059 
L 273.853668 158.236563 
L 276.533318 158.619761 
L 279.212969 158.933659 
L 281.892619 159.194014 
L 284.57227 159.412344 
L 287.25192 159.597232 
L 289.931571 159.755173 
L 292.611221 159.891161 
L 295.290872 160.009083 
L 297.970523 160.112004 
L 300.650173 160.202363 
L 303.329824 160.282126 
L 306.009474 160.352886 
L 308.689125 160.415949 
L 311.368775 160.472392 
L 314.048426 160.523111 
L 316.728076 160.568853 
L 319.407727 160.61025 
L 322.087377 160.647834 
L 324.767028 160.682061 
L 327.446679 160.713318 
L 330.126329 160.741939 
L 332.80598 160.768212 
L 335.48563 160.792388 
L 338.165281 160.814684 
L 340.844931 160.83529 
L 343.524582 160.854372 
L 346.204232 160.872077 
L 348.883883 160.888535 
L 351.563533 160.90386 
L 354.243184 160.918153 
L 356.922835 160.931505 
L 359.602485 160.943997 
L 362.282136 160.955702 
L 364.961786 160.966683 
L 367.641437 160.977 
L 370.321087 160.986705 
L 373.000738 160.995846 
L 375.680388 161.004465 
L 378.360039 161.012601 
L 381.039689 161.02029 
L 383.71934 161.027564 
L 386.398991 161.034452 
L 389.078641 161.040981 
L 391.758292 161.047176 
L 394.437942 161.053059 
L 397.117593 161.058651 
L 399.797243 161.06397 
L 402.476894 161.069034 
L 405.156544 161.073859 
L 407.836195 161.07846 
L 410.515845 161.08285 
L 413.195496 161.087043 
L 415.875147 161.091049 
" clip-path="url(#pb265440d0b)" style="fill: none; stroke: #008000; stroke-width: 1.5; stroke-linecap: square"/>
   </g>
   <g id="patch_3">
    <path d="M 57.6 307.584 
L 57.6 41.472 
" style="fill: none; stroke: #000000; stroke-width: 0.8; stroke-linejoin: miter; stroke-linecap: square"/>
   </g>
   <g id="patch_4">
    <path d="M 414.72 307.584 
L 414.72 41.472 
" style="fill: none; stroke: #000000; stroke-width: 0.8; stroke-linejoin: miter; stroke-linecap: square"/>
   </g>
   <g id="patch_5">
    <path d="M 57.6 307.584 
L 414.72 307.584 
" style="fill: none; stroke: #000000; stroke-width: 0.8; stroke-linejoin: miter; stroke-linecap: square"/>
   </g>
   <g id="patch_6">
    <path d="M 57.6 41.472 
L 414.72 41.472 
" style="fill: none; stroke: #000000; stroke-width: 0.8; stroke-linejoin: miter; stroke-linecap: square"/>
   </g>
   <g id="legend_1">
    <g id="patch_7">
     <path d="M 314.690313 93.506375 
L 407.72 93.506375 
Q 409.72 93.506375 409.72 91.506375 
L 409.72 48.472 
Q 409.72 46.472 407.72 46.472 
L 314.690313 46.472 
Q 312.690313 46.472 312.690313 48.472 
L 312.690313 91.506375 
Q 312.690313 93.506375 314.690313 93.506375 
z
" style="fill: #ffffff; opacity: 0.8; stroke: #cccccc; stroke-linejoin: miter"/>
    </g>
    <g id="line2d_43">
     <path d="M 316.690313 54.570438 
L 326.690313 54.570438 
L 336.690313 54.570438 
" style="fill: none; stroke: #0000ff; stroke-width: 1.5; stroke-linecap: square"/>
    </g>
    <g id="text_21">
     <!-- a = 1, b = 1 -->
     <g transform="translate(344.690313 58.070438) scale(0.1 -0.1)">
      <defs>
       <path id="DejaVuSans-61" d="M 2194 1759 
Q 1497 1759 1228 1600 
Q 959 1441 959 1056 
Q 959 750 1161 570 
Q 1363 391 1709 391 
Q 2188 391 2477 730 
Q 2766 1069 2766 1631 
L 2766 1759 
L 2194 1759 
z
M 3341 1997 
L 3341 0 
L 2766 0 
L 2766 531 
Q 2569 213 2275 61 
Q 1981 -91 1556 -91 
Q 1019 -91 701 211 
Q 384 513 384 1019 
Q 384 1609 779 1909 
Q 1175 2209 1959 2209 
L 2766 2209 
L 2766 2266 
Q 2766 2663 2505 2880 
Q 2244 3097 1772 3097 
Q 1472 3097 1187 3025 
Q 903 2953 641 2809 
L 641 3341 
Q 956 3463 1253 3523 
Q 1550 3584 1831 3584 
Q 2591 3584 2966 3190 
Q 3341 2797 3341 1997 
z
" transform="scale(0.015625)"/>
       <path id="DejaVuSans-20" transform="scale(0.015625)"/>
       <path id="DejaVuSans-3d" d="M 678 2906 
L 4684 2906 
L 4684 2381 
L 678 2381 
L 678 2906 
z
M 678 1631 
L 4684 1631 
L 4684 1100 
L 678 1100 
L 678 1631 
z
" transform="scale(0.015625)"/>
       <path id="DejaVuSans-2c" d="M 750 794 
L 1409 794 
L 1409 256 
L 897 -744 
L 494 -744 
L 750 256 
L 750 794 
z
" transform="scale(0.015625)"/>
       <path id="DejaVuSans-62" d="M 3116 1747 
Q 3116 2381 2855 2742 
Q 2594 3103 2138 3103 
Q 1681 3103 1420 2742 
Q 1159 2381 1159 1747 
Q 1159 1113 1420 752 
Q 1681 391 2138 391 
Q 2594 391 2855 752 
Q 3116 1113 3116 1747 
z
M 1159 2969 
Q 1341 3281 1617 3432 
Q 1894 3584 2278 3584 
Q 2916 3584 3314 3078 
Q 3713 2572 3713 1747 
Q 3713 922 3314 415 
Q 2916 -91 2278 -91 
Q 1894 -91 1617 61 
Q 1341 213 1159 525 
L 1159 0 
L 581 0 
L 581 4863 
L 1159 4863 
L 1159 2969 
z
" transform="scale(0.015625)"/>
      </defs>
      <use xlink:href="#DejaVuSans-61"/>
      <use xlink:href="#DejaVuSans-20" x="61.279297"/>
      <use xlink:href="#DejaVuSans-3d" x="93.066406"/>
      <use xlink:href="#DejaVuSans-20" x="176.855469"/>
      <use xlink:href="#DejaVuSans-31" x="208.642578"/>
      <use xlink:href="#DejaVuSans-2c" x="272.265625"/>
      <use xlink:href="#DejaVuSans-20" x="304.052734"/>
      <use xlink:href="#DejaVuSans-62" x="335.839844"/>
      <use xlink:href="#DejaVuSans-20" x="399.316406"/>
      <use xlink:href="#DejaVuSans-3d" x="431.103516"/>
      <use xlink:href="#DejaVuSans-20" x="514.892578"/>
      <use xlink:href="#DejaVuSans-31" x="546.679688"/>
     </g>
    </g>
    <g id="line2d_44">
     <path d="M 316.690313 69.248563 
L 326.690313 69.248563 
L 336.690313 69.248563 
" style="fill: none; stroke: #ff0000; stroke-width: 1.5; stroke-linecap: square"/>
    </g>
    <g id="text_22">
     <!-- a = 2, b = 1 -->
     <g transform="translate(344.690313 72.748563) scale(0.1 -0.1)">
      <use xlink:href="#DejaVuSans-61"/>
      <use xlink:href="#DejaVuSans-20" x="61.279297"/>
      <use xlink:href="#DejaVuSans-3d" x="93.066406"/>
      <use xlink:href="#DejaVuSans-20" x="176.855469"/>
      <use xlink:href="#DejaVuSans-32" x="208.642578"/>
      <use xlink:href="#DejaVuSans-2c" x="272.265625"/>
      <use xlink:href="#DejaVuSans-20" x="304.052734"/>
      <use xlink:href="#DejaVuSans-62" x="335.839844"/>
      <use xlink:href="#DejaVuSans-20" x="399.316406"/>
      <use xlink:href="#DejaVuSans-3d" x="431.103516"/>
      <use xlink:href="#DejaVuSans-20" x="514.892578"/>
      <use xlink:href="#DejaVuSans-31" x="546.679688"/>
     </g>
    </g>
    <g id="line2d_45">
     <path d="M 316.690313 83.926688 
L 326.690313 83.926688 
L 336.690313 83.926688 
" style="fill: none; stroke: #008000; stroke-width: 1.5; stroke-linecap: square"/>
    </g>
    <g id="text_23">
     <!-- a = 1, b = 2 -->
     <g transform="translate(344.690313 87.426688) scale(0.1 -0.1)">
      <use xlink:href="#DejaVuSans-61"/>
      <use xlink:href="#DejaVuSans-20" x="61.279297"/>
      <use xlink:href="#DejaVuSans-3d" x="93.066406"/>
      <use xlink:href="#DejaVuSans-20" x="176.855469"/>
      <use xlink:href="#DejaVuSans-31" x="208.642578"/>
      <use xlink:href="#DejaVuSans-2c" x="272.265625"/>
      <use xlink:href="#DejaVuSans-20" x="304.052734"/>
      <use xlink:href="#DejaVuSans-62" x="335.839844"/>
      <use xlink:href="#DejaVuSans-20" x="399.316406"/>
      <use xlink:href="#DejaVuSans-3d" x="431.103516"/>
      <use xlink:href="#DejaVuSans-20" x="514.892578"/>
      <use xlink:href="#DejaVuSans-32" x="546.679688"/>
     </g>
    </g>
   </g>
  </g>
 </g>
 <defs>
  <clipPath id="pb265440d0b">
   <rect x="57.6" y="41.472" width="357.12" height="266.112"/>
  </clipPath>
 </defs>
</svg>
